<?xml version="1.0" encoding="UTF-8" standalone="no"?>
<!DOCTYPE svg PUBLIC "-//W3C//DTD SVG 1.1//EN" "http://www.w3.org/Graphics/SVG/1.1/DTD/svg11.dtd">
<svg width="100%" height="100%" viewBox="0 0 484 263" version="1.1" xmlns="http://www.w3.org/2000/svg" xmlns:xlink="http://www.w3.org/1999/xlink" xml:space="preserve" xmlns:serif="http://www.serif.com/" style="fill-rule:evenodd;clip-rule:evenodd;stroke-linejoin:round;stroke-miterlimit:2;">
    <g transform="matrix(1,0,0,1,-187.367638,-1237.05871)">
        <g transform="matrix(1,0,0,1,-72,939.18776)">
            <g transform="matrix(43.985162,0,0,43.985162,-1723.484317,-1813.412483)">
                <g transform="matrix(1,0,0.174123,1,19.209468,15.295776)">
                    <path d="M26.667,36.901L23.909,36.901L24.5,38.154C24.648,38.467 24.963,38.667 25.309,38.667C26.306,38.667 28.624,38.667 29.671,38.667C29.856,38.667 30.028,38.572 30.127,38.416C30.226,38.26 30.238,38.064 30.159,37.897C29.499,36.5 28.172,33.689 28.172,33.689C28.172,33.689 27.994,33.396 28.191,33.325C28.388,33.253 28.527,33.607 28.527,33.607L29.045,34.704L30.782,34.704L30.05,33.155C29.92,32.88 29.643,32.704 29.338,32.704C28.464,32.704 26.984,32.704 26.051,32.704C25.866,32.704 25.694,32.799 25.595,32.955C25.496,33.111 25.484,33.307 25.563,33.474C26.212,34.848 27.502,37.581 27.502,37.581C27.502,37.581 27.606,37.821 27.392,37.913C27.178,38.004 27.069,37.751 27.069,37.751L26.667,36.901Z" style="fill:rgb(29,55,181);"/>
                </g>
                <g transform="matrix(1,0,0.174123,1,19.209468,15.295776)">
                    <path d="M26.452,36.444L24.686,32.828L20.406,32.827C20.406,32.827 20.571,33.258 20.588,33.303C20.589,33.305 20.591,33.306 20.594,33.306C21.795,33.317 22.139,33.288 22.609,34.148L23.693,36.444L26.452,36.444Z" style="fill:rgb(29,55,181);"/>
                </g>
                <g transform="matrix(0.662327,0,0,0.662327,15.606453,14.885011)">
                    <circle cx="47" cy="56.5" r="2.5" style="fill:rgb(0,255,212);"/>
                </g>
            </g>
        </g>
    </g>
</svg>
